<svg width="24" height="24" viewBox="0 0 24 24" fill="none" xmlns="http://www.w3.org/2000/svg">
<path fill-rule="evenodd" clip-rule="evenodd" d="M8.04384 14.4219C8.80011 14.9272 9.68922 15.1968 10.5987 15.1968C11.3549 15.1967 12.0994 15.0102 12.7663 14.6537C13.0793 14.4863 13.3707 14.284 13.6353 14.0513L17.5842 18.0002L18.0001 17.5844L14.0511 13.6355C14.1848 13.4834 14.3088 13.3223 14.4219 13.1529C14.842 12.5242 15.1005 11.8015 15.1746 11.049C15.2487 10.2964 15.1361 9.53723 14.8467 8.83861C14.5573 8.13999 14.1001 7.52352 13.5156 7.0438C12.9311 6.56408 12.2372 6.23592 11.4956 6.08838C10.7539 5.94084 9.98735 5.97847 9.26372 6.19795C8.54009 6.41743 7.88175 6.81198 7.34702 7.34665C6.70385 7.98975 6.26584 8.80914 6.08838 9.70119C5.91092 10.5932 6.00198 11.5179 6.35005 12.3582C6.69813 13.1985 7.28757 13.9167 8.04384 14.4219ZM6.66681 9.81757C6.82162 9.03962 7.20366 8.32505 7.76461 7.76424C8.1348 7.38808 8.57614 7.08934 9.06293 6.88543C9.54971 6.68151 10.0722 6.57649 10.6 6.57649C11.1278 6.57649 11.6503 6.68151 12.137 6.88543C12.6238 7.08934 13.0652 7.38808 13.4354 7.76424C13.9963 8.32505 14.3783 9.03962 14.5332 9.81757C14.688 10.5955 14.6086 11.4019 14.3051 12.1347C14.0016 12.8676 13.4876 13.494 12.8281 13.9347C12.1686 14.3754 11.3932 14.6106 10.6 14.6106C9.80678 14.6106 9.0314 14.3754 8.37189 13.9347C7.71237 13.494 7.19836 12.8676 6.89485 12.1347C6.59135 11.4019 6.51199 10.5955 6.66681 9.81757Z" fill="#5A5A5A"/>
</svg>
